PathFileType	4	(X/Y/Z)	c:/Users/goper/Files/vsCode/490R/osim_files/A04/A04_ROM.trc
DataRate	CameraRate	NumFrames	NumMarkers	Units                	OrigDataRate	OrigDataStartFrame	OrigNumFrames
120.00	120.00	8	36	mm	120.0	1362	1556
                Frame#	Time	LPSIS			LASIS			LTH1			LTH2			LTH3			LTH4			LLFE			LMFE			LSH1			LSH2			LSH3			LSH4			LLMAL			LMMAL			LCAL			LMTP5			LTOE			LMTP1			RPSIS			RASIS			RTH1			RTH2			RTH3			RTH4			RLFE			RMFE			RSH1			RSH2			RSH3			RSH4			RLMAL			RMMAL			RCAL			RMTP1			RTOE			RMTP5		
		X1	Y1	Z1	X2	Y2	Z2	X3	Y3	Z3	X4	Y4	Z4	X5	Y5	Z5	X6	Y6	Z6	X7	Y7	Z7	X8	Y8	Z8	X9	Y9	Z9	X10	Y10	Z10	X11	Y11	Z11	X12	Y12	Z12	X13	Y13	Z13	X14	Y14	Z14	X15	Y15	Z15	X16	Y16	Z16	X17	Y17	Z17	X18	Y18	Z18	X19	Y19	Z19	X20	Y20	Z20	X21	Y21	Z21	X22	Y22	Z22	X23	Y23	Z23	X24	Y24	Z24	X25	Y25	Z25	X26	Y26	Z26	X27	Y27	Z27	X28	Y28	Z28	X29	Y29	Z29	X30	Y30	Z30	X31	Y31	Z31	X32	Y32	Z32	X33	Y33	Z33	X34	Y34	Z34	X35	Y35	Z35	X36	Y36	Z36

1362	11.34167	-345.64496	1047.63696	502.84439	-121.38503	998.24310	418.58127	-219.53801	700.46155	362.77145	-214.47285	658.46533	349.80212	-159.05022	705.89087	358.11331	-160.67076	663.08740	345.25323	-189.61356	543.14545	338.23041	-162.83038	509.94000	472.68228	-226.79677	446.11581	316.02402	-221.96371	403.40680	308.02933	-164.85187	443.99026	322.85413	-169.32272	401.44958	315.04666	-252.67693	113.13972	275.82178	-224.30264	109.69435	355.21973	-312.78064	67.49210	332.90738	-119.45655	64.94058	222.01273	-64.67328	75.86148	277.77386	-76.59069	58.45356	322.94208	-347.41602	1045.55981	609.87518	-122.07635	1038.90222	704.20160	-214.11397	740.10590	757.54108	-206.35858	698.34637	758.91479	-153.15170	745.14673	765.40649	-153.70184	697.87036	763.10632	-143.61273	555.85400	744.69733	-142.18669	545.14551	628.58704	-217.11819	347.66653	759.40491	-217.45491	299.64395	753.63489	-154.55054	340.81796	756.93158	-165.51926	294.09589	757.16302	-211.23465	105.26347	770.69489	-197.86378	104.45855	634.97351	-286.93643	57.07564	699.85974	-70.43164	56.91209	645.24200	-39.00416	77.37057	690.05920	-71.49187	50.75208	765.05255
1363	11.35000	-345.66379	1047.87219	501.89447	-121.63204	998.64191	417.44830	-219.87448	700.46075	361.79254	-214.76312	658.47559	348.86902	-159.26970	706.00690	357.22198	-160.92487	663.06470	344.27094	-190.04990	543.20239	337.49542	-163.06480	510.20013	472.00565	-227.36774	445.91232	315.60315	-222.23070	403.31830	307.43619	-165.21222	443.98776	322.24609	-169.58099	401.45267	314.44412	-252.65546	113.07433	275.72266	-224.29518	109.71466	355.09280	-312.73825	67.48273	332.83438	-119.46075	64.81562	221.93517	-64.72363	75.66790	277.79800	-76.58616	58.45994	322.87619	-347.13272	1045.49670	608.77936	-122.09485	1038.72815	703.16516	-213.60696	739.86932	756.57532	-205.96219	698.22693	758.14185	-152.05507	745.43457	764.35785	-153.19066	697.81879	762.31696	-142.79196	555.87000	744.01837	-141.22841	544.92548	628.05792	-216.19122	347.91714	758.97125	-217.04465	299.79990	753.34717	-153.99400	340.87372	756.57996	-165.06395	294.10733	756.80212	-211.04666	105.43314	770.58997	-197.72342	104.42618	634.85925	-286.84247	57.18823	699.81927	-70.37331	56.75874	645.18500	-38.89812	77.26327	689.95374	-71.44465	50.72028	765.02527
1364	11.35833	-346.01114	1048.24353	500.84680	-122.08181	998.89374	416.31320	-220.04900	700.45001	360.76859	-215.12047	658.46582	347.95700	-159.63213	705.90631	356.20349	-161.22026	663.07996	343.31506	-190.31891	543.21429	336.71600	-163.34886	510.43604	471.21860	-227.58086	445.89243	314.97141	-222.43092	403.25955	306.88474	-165.48335	443.93848	321.61337	-169.76982	401.42941	313.90842	-252.69580	112.98379	275.66974	-224.34328	109.72826	354.97638	-312.75903	67.43143	332.82413	-119.52201	64.72559	221.88036	-64.75840	75.67577	277.72202	-76.62122	58.50964	322.83328	-347.92908	1045.63354	607.84851	-122.22831	1038.49402	702.14130	-213.27713	739.67816	755.70691	-205.36967	698.06512	757.28308	-151.59891	745.38159	763.37726	-152.68660	697.76123	761.48962	-142.11935	555.86896	743.28937	-140.27109	544.71631	627.57782	-215.76053	348.04382	758.56769	-216.64784	299.92905	752.96265	-153.52022	340.93607	756.20172	-164.71048	294.18204	756.48657	-210.87834	105.61952	770.45935	-197.63544	104.38297	634.74847	-286.82706	57.33993	699.77509	-70.35004	56.59019	645.12567	-38.82890	77.12517	689.85553	-71.38911	50.74093	764.96844
1365	11.36667	-346.13660	1048.49084	499.79044	-122.36111	999.24854	415.06506	-220.25829	700.53302	359.63364	-215.37061	658.50726	346.90714	-159.83463	705.94867	355.18494	-161.48700	663.06073	342.33243	-190.55788	543.19971	335.83707	-163.56024	510.71149	470.42325	-227.79175	445.85977	314.31641	-222.55524	403.20718	306.24243	-165.65556	443.93286	320.88422	-169.97911	401.42517	313.30103	-252.70863	112.92551	275.56152	-224.30818	109.77496	354.82065	-312.79349	67.42019	332.75726	-119.49422	64.67248	221.75917	-64.71764	75.68798	277.61075	-76.56827	58.55721	322.75540	-348.11069	1045.68555	606.77283	-122.35318	1038.23950	701.02203	-212.93964	739.61084	754.81628	-204.98613	697.95233	756.41559	-151.24567	745.28717	762.50903	-152.23654	697.71350	760.68988	-141.46411	555.86115	742.51337	-139.39372	544.47668	626.99481	-215.71803	348.06232	758.06787	-216.28127	300.07858	752.56976	-153.04265	341.03659	755.67590	-164.31531	294.28882	756.05298	-210.71014	105.81554	770.28278	-197.52632	104.33456	634.63373	-286.74890	57.50075	699.63678	-70.22925	56.50506	645.01764	-38.73066	77.08575	689.73566	-71.31741	50.76193	764.86823
1366	11.37500	-346.32281	1048.81445	498.67761	-122.63173	999.51465	413.82574	-220.47375	700.60608	358.49313	-215.47285	658.52826	345.83344	-160.02341	705.99451	354.04169	-161.68710	663.10596	341.22702	-190.72937	543.20911	334.92355	-163.76030	510.95862	469.57318	-227.89540	445.82324	313.53998	-222.68785	403.16800	305.60516	-165.80740	443.91135	320.19431	-170.08833	401.41794	312.59955	-252.70624	112.86407	275.47693	-224.33995	109.80813	354.70935	-312.76523	67.39595	332.73047	-119.52374	64.58922	221.68018	-64.75037	75.66688	277.52975	-76.57954	58.58108	322.67526	-348.17081	1045.68213	605.68878	-122.27348	1038.07202	699.84338	-212.69589	739.47198	753.73901	-204.75433	697.85822	755.53613	-151.08492	745.15546	761.52643	-151.95078	697.65082	759.74377	-141.03175	555.88104	741.67322	-138.70857	544.27820	626.44305	-215.04059	348.30817	757.56488	-216.00354	300.22916	752.13660	-152.81503	341.12430	755.22040	-164.03806	294.34167	755.63727	-210.66246	105.96606	770.15686	-197.46309	104.23652	634.49268	-286.70480	57.58927	699.55927	-70.23183	56.39039	644.93146	-38.68879	77.01641	689.63788	-71.28287	50.77511	764.80145
1367	11.38333	-346.37851	1049.12512	497.62268	-122.94139	999.86420	412.53909	-220.70703	700.62366	357.30325	-215.60095	658.56616	344.64267	-160.18686	706.02350	352.85321	-161.72881	663.20074	340.13361	-190.86964	543.22369	334.02396	-163.88098	511.21170	468.70776	-228.25920	445.67438	312.86691	-222.81755	403.13315	304.91153	-165.94513	443.93640	319.44324	-170.22113	401.34885	311.93375	-252.70883	112.82635	275.40430	-224.35966	109.81355	354.63007	-312.77267	67.40694	332.67471	-119.56152	64.45155	221.65863	-64.77215	75.60529	277.48547	-76.65440	58.53926	322.63925	-348.32376	1045.63403	604.61798	-122.25654	1037.80286	698.71033	-212.59395	739.41846	752.77899	-204.56607	697.70416	754.63007	-150.89166	745.09802	760.54956	-151.78665	697.59277	758.86292	-140.74319	555.88013	740.82898	-138.16022	544.09290	625.78339	-214.93144	348.38907	757.11029	-215.88077	300.29987	751.75629	-152.71271	341.15393	754.75824	-163.97127	294.34286	755.26123	-210.62550	106.03079	770.03143	-197.40129	104.13780	634.36169	-286.72931	57.60147	699.58087	-70.25298	56.26551	644.89746	-38.68532	76.90884	689.59875	-71.29379	50.75503	764.78107
1368	11.39167	-346.39703	1049.39966	496.49026	-123.12953	1000.20233	411.19586	-220.74904	700.67200	356.02786	-215.69328	658.64502	343.43256	-160.16875	706.14661	351.58224	-161.80283	663.17480	338.94742	-191.84645	542.69696	333.97391	-163.98193	511.44113	467.81973	-228.00832	445.75616	311.99127	-222.92416	403.08774	304.21362	-165.94888	443.96671	318.64505	-170.33873	401.33514	311.20370	-252.71278	112.77761	275.32718	-224.35146	109.78891	354.53552	-312.79370	67.40907	332.65656	-119.53909	64.33443	221.57658	-64.74951	75.56167	277.43192	-76.62943	58.54676	322.59555	-348.40271	1045.54053	603.54633	-122.24712	1037.48816	697.55243	-212.55243	739.22168	751.69275	-204.55525	697.61267	753.58466	-150.88835	745.09009	759.49915	-151.78114	697.48364	757.94928	-140.63277	555.83557	739.99286	-137.88448	543.86218	625.01447	-214.89548	348.45120	756.58533	-215.77769	300.33710	751.31598	-152.66376	341.17404	754.23535	-163.98833	294.33795	754.84033	-210.58943	106.10630	769.89178	-197.39658	104.02577	634.21283	-286.71469	57.56367	699.57025	-70.23673	56.12084	644.86023	-38.68766	76.85757	689.56506	-71.31019	50.75091	764.77301
1369	11.40000	-346.66336	1049.76941	495.32324	-123.39942	1000.44934	409.81766	-220.72101	700.76117	354.73431	-215.70592	658.64508	342.16406	-160.14539	706.23700	350.25281	-161.75894	663.25378	337.69012	-191.83580	542.71307	333.00266	-163.95750	511.70145	466.90402	-228.12656	445.73917	311.22290	-222.99561	403.05316	303.53757	-165.99397	443.97495	317.81519	-170.38446	401.33179	310.52844	-252.71625	112.74232	275.23914	-224.33904	109.79943	354.45511	-312.79037	67.43861	332.60220	-119.54743	64.22582	221.53539	-64.75548	75.48611	277.36151	-76.62808	58.53063	322.54446	-348.52377	1045.56641	602.50250	-122.11198	1037.24036	696.28723	-212.51865	739.08173	750.58405	-204.50302	697.54919	752.50024	-150.82005	745.04474	758.47467	-151.88547	697.35577	756.95428	-140.77286	555.75134	739.09406	-137.83080	543.69073	624.23486	-214.84120	348.49002	756.04083	-215.83018	300.35974	750.82251	-152.73174	341.21869	753.72711	-164.00160	294.40808	754.39630	-210.60294	106.17063	769.75092	-197.39020	103.92594	634.08136	-286.67001	57.49974	699.55475	-70.22640	56.05174	644.79736	-38.67785	76.84966	689.49731	-71.31642	50.75813	764.71869
